<?xml version="1.0" encoding="UTF-8" standalone="no"?>
<!-- Created with Inkscape (http://www.inkscape.org/) -->

<svg
   width="40.738621mm"
   height="46.387569mm"
   viewBox="0 0 40.738621 46.387569"
   version="1.1"
   id="svg1"
   sodipodi:docname="tile.svg"
   inkscape:version="1.4.3 (0d15f75, 2025-12-25)"
   xmlns:inkscape="http://www.inkscape.org/namespaces/inkscape"
   xmlns:sodipodi="http://sodipodi.sourceforge.net/DTD/sodipodi-0.dtd"
   xmlns="http://www.w3.org/2000/svg"
   xmlns:svg="http://www.w3.org/2000/svg">
  <sodipodi:namedview
     id="namedview1"
     pagecolor="#ffffff"
     bordercolor="#000000"
     borderopacity="0.25"
     inkscape:showpageshadow="2"
     inkscape:pageopacity="0.0"
     inkscape:pagecheckerboard="0"
     inkscape:deskcolor="#d1d1d1"
     inkscape:document-units="mm"
     inkscape:zoom="1.6012993"
     inkscape:cx="98.357626"
     inkscape:cy="22.481743"
     inkscape:window-width="1710"
     inkscape:window-height="955"
     inkscape:window-x="0"
     inkscape:window-y="39"
     inkscape:window-maximized="1"
     inkscape:current-layer="layer1"
     showguides="true" />
  <defs
     id="defs1" />
  <g
     inkscape:label="BASE"
     inkscape:groupmode="layer"
     id="layer1"
     transform="translate(-162.04088,-167.15323)">
    <path
       sodipodi:type="star"
       style="fill:#a0de7e;fill-opacity:1;fill-rule:nonzero;stroke-width:0.264583"
       id="path1"
       inkscape:flatsided="true"
       sodipodi:sides="6"
       sodipodi:cx="51.038059"
       sodipodi:cy="69.48555"
       sodipodi:r1="75.203545"
       sodipodi:r2="65.128181"
       sodipodi:arg1="0.5221887"
       sodipodi:arg2="1.0457875"
       inkscape:rounded="0"
       inkscape:randomized="0"
       d="M 116.2192,106.99545 51.144102,144.68902 -14.037035,107.17912 -14.143077,31.975651 50.932017,-5.7179199 116.11315,31.791979 Z"
       transform="matrix(0.28181937,0,0,0.28181937,168.02667,170.76464)"
       inkscape:label="HEXAGON" />
    <rect
       style="fill:#000000;fill-opacity:1;stroke-width:0.264999;stroke-dasharray:none"
       id="LEFT_SIDE"
       width="2"
       height="14"
       x="163.05582"
       y="183.37289" />
    <rect
       style="fill:#000000;fill-opacity:1;stroke-width:0.264999;stroke-dasharray:none"
       id="TOP_LEFT_SIDE"
       width="2"
       height="14"
       x="236.78439"
       y="-69.437119"
       transform="rotate(59.919181)" />
    <rect
       style="fill:#000000;fill-opacity:1;stroke-width:0.264999;stroke-dasharray:none"
       id="BOTTOM_RIGHT_SIDE"
       width="2"
       height="14"
       x="273.49316"
       y="-69.437103"
       transform="rotate(59.919181)" />
    <rect
       style="fill:#000000;fill-opacity:1;stroke-width:0.264999;stroke-dasharray:none"
       id="BOTTOM_LEFT_SIDE"
       width="2"
       height="14"
       x="91.351456"
       y="-260.04129"
       transform="rotate(119.91922)" />
    <rect
       style="fill:#000000;fill-opacity:1;stroke-width:0.264999;stroke-dasharray:none"
       id="TOP_RIGHT_SIDE"
       width="2"
       height="14"
       x="54.642708"
       y="-260.04129"
       transform="rotate(119.91922)" />
    <rect
       style="fill:#000000;fill-opacity:1;stroke-width:0.264999;stroke-dasharray:none"
       id="RIGHT_SIDE"
       width="2"
       height="14"
       x="199.76456"
       y="183.32114" />
  </g>
  <g
     inkscape:groupmode="layer"
     id="layer5"
     inkscape:label="EDGES"
     transform="translate(-162.04088,-167.15323)" />
  <g
     inkscape:groupmode="layer"
     id="layer6"
     inkscape:label="VERTICES"
     transform="translate(-162.04088,-167.15323)">
    <path
       id="VERTEX_TEN"
       style="stroke-width:0.262929"
       d="m 166.02525,179.77599 a 1.984375,1.984375 0 0 1 -1.98437,1.98438 1.984375,1.984375 0 0 1 -1.98438,-1.98438 1.984375,1.984375 0 0 1 1.98438,-1.98437 1.984375,1.984375 0 0 1 1.98437,1.98437 z" />
    <path
       id="VERTEX_EIGHT"
       style="stroke-width:0.262929"
       d="m 166.05513,200.96979 a 1.984375,1.984375 0 0 1 -1.98437,1.98438 1.984375,1.984375 0 0 1 -1.98437,-1.98438 1.984375,1.984375 0 0 1 1.98437,-1.98437 1.984375,1.984375 0 0 1 1.98437,1.98437 z" />
    <path
       id="VERTEX_SIX"
       style="stroke-width:0.262929"
       d="m 184.42444,211.5408 a 1.984375,1.984375 0 0 1 -1.98437,1.98438 1.984375,1.984375 0 0 1 -1.98438,-1.98438 1.984375,1.984375 0 0 1 1.98438,-1.98437 1.984375,1.984375 0 0 1 1.98437,1.98437 z" />
    <path
       id="VERTEX_FOUR"
       style="stroke-width:0.262929"
       d="m 202.76387,200.91803 a 1.984375,1.984375 0 0 1 -1.98437,1.98438 1.984375,1.984375 0 0 1 -1.98438,-1.98438 1.984375,1.984375 0 0 1 1.98438,-1.98437 1.984375,1.984375 0 0 1 1.98437,1.98437 z" />
    <path
       id="VERTEX_TWO"
       style="stroke-width:0.262929"
       d="m 202.73398,179.72423 a 1.984375,1.984375 0 0 1 -1.98437,1.98438 1.984375,1.984375 0 0 1 -1.98438,-1.98438 1.984375,1.984375 0 0 1 1.98438,-1.98437 1.984375,1.984375 0 0 1 1.98437,1.98437 z" />
    <path
       id="VERTEX_TWELVE"
       style="stroke-width:0.262929"
       d="m 184.36467,169.15321 a 1.984375,1.984375 0 0 1 -1.98437,1.98438 1.984375,1.984375 0 0 1 -1.98438,-1.98438 1.984375,1.984375 0 0 1 1.98438,-1.98437 1.984375,1.984375 0 0 1 1.98437,1.98437 z" />
  </g>
</svg>
