<?xml version="1.0" encoding="UTF-8" standalone="no"?>
<!-- Created with Inkscape (http://www.inkscape.org/) -->

<svg
   width="40mm"
   height="45.26553mm"
   viewBox="0 0 40 45.26553"
   version="1.1"
   id="svg1"
   sodipodi:docname="tile.svg"
   inkscape:version="1.4.3 (0d15f75, 2025-12-25)"
   xmlns:inkscape="http://www.inkscape.org/namespaces/inkscape"
   xmlns:sodipodi="http://sodipodi.sourceforge.net/DTD/sodipodi-0.dtd"
   xmlns="http://www.w3.org/2000/svg"
   xmlns:svg="http://www.w3.org/2000/svg">
  <sodipodi:namedview
     id="namedview1"
     pagecolor="#ffffff"
     bordercolor="#000000"
     borderopacity="0.25"
     inkscape:showpageshadow="2"
     inkscape:pageopacity="0.0"
     inkscape:pagecheckerboard="0"
     inkscape:deskcolor="#d1d1d1"
     inkscape:document-units="mm"
     inkscape:zoom="0.71526017"
     inkscape:cx="29.359946"
     inkscape:cy="76.895097"
     inkscape:window-width="1710"
     inkscape:window-height="955"
     inkscape:window-x="0"
     inkscape:window-y="39"
     inkscape:window-maximized="1"
     inkscape:current-layer="layer1" />
  <defs
     id="defs1" />
  <g
     inkscape:label="BASE"
     inkscape:groupmode="layer"
     id="layer1"
     transform="translate(-87.276471,-116.21702)">
    <path
       sodipodi:type="star"
       style="fill:#a0de7e;fill-opacity:1;fill-rule:nonzero;stroke-width:0.264583"
       id="path1"
       inkscape:flatsided="true"
       sodipodi:sides="6"
       sodipodi:cx="51.038059"
       sodipodi:cy="69.48555"
       sodipodi:r1="75.203545"
       sodipodi:r2="65.128181"
       sodipodi:arg1="0.5221887"
       sodipodi:arg2="1.0457875"
       inkscape:rounded="0"
       inkscape:randomized="0"
       d="M 116.2192,106.99545 51.144102,144.68902 -14.037035,107.17912 -14.143077,31.975651 50.932017,-5.7179199 116.11315,31.791979 Z"
       transform="matrix(0.28181937,0,0,0.28181937,92.807191,119.14738)"
       inkscape:label="HEXAGON" />
  </g>
  <g
     inkscape:groupmode="layer"
     id="layer5"
     inkscape:label="EDGES"
     transform="translate(-87.276471,-116.21702)">
    <path
       id="LEFT_SIDE"
       style="stroke-width:0.0549384"
       d="m 88.010191,130.7935 h 1.94845 v 15.07489 h -1.94845 z" />
    <path
       id="RIGHT_SIDE"
       style="stroke-width:0.0549384"
       d="m 124.3916,131.13338 h 1.94846 v 15.07489 h -1.94846 z" />
    <path
       id="TOP_RIGHT_SIDE"
       style="stroke-width:0.0549384"
       d="m 109.50711,120.04195 0.97941,-1.68441 13.03201,7.57754 -0.97942,1.6844 z" />
    <path
       id="BOTTOM_LEFT_SIDE"
       style="stroke-width:0.0549384"
       d="m 91.019691,151.64967 0.9794,-1.68441 13.032009,7.57753 -0.9794,1.68441 z" />
    <path
       id="BOTTOM_RIGHT_SIDE-3"
       style="stroke-width:0.0549384"
       d="m 110.63392,159.45676 -1.01991,-1.6602 12.84468,-7.8909 1.01991,1.66019 z" />
    <path
       id="TOP_LEFT_SIDE"
       style="stroke-width:0.0549384"
       d="m 91.723651,127.85041 -0.98602,-1.68054 13.002139,-7.62864 0.98602,1.68054 z" />
  </g>
  <g
     inkscape:groupmode="layer"
     id="layer6"
     inkscape:label="VERTICES"
     transform="translate(-87.276471,-116.21702)">
    <path
       id="VERTEX_TEN"
       style="stroke-width:0.0745647"
       d="m 90.779041,128.38357 a 1.7433544,1.6920792 0 0 1 -1.74335,1.69207 1.7433544,1.6920792 0 0 1 -1.74336,-1.69207 1.7433544,1.6920792 0 0 1 1.74336,-1.69208 1.7433544,1.6920792 0 0 1 1.74335,1.69208 z" />
    <path
       id="VERTEX_TWELVE"
       style="stroke-width:0.0745647"
       d="m 108.9088,117.9091 a 1.7433544,1.6920792 0 0 1 -1.74336,1.69207 1.7433544,1.6920792 0 0 1 -1.74335,-1.69207 1.7433544,1.6920792 0 0 1 1.74335,-1.69208 1.7433544,1.6920792 0 0 1 1.74336,1.69208 z" />
    <path
       id="VERTEX_TWO"
       style="stroke-width:0.0745647"
       d="m 127.17697,127.93256 a 1.7433544,1.6920792 0 0 1 -1.74336,1.69209 1.7433544,1.6920792 0 0 1 -1.74336,-1.69209 1.7433544,1.6920792 0 0 1 1.74336,-1.69208 1.7433544,1.6920792 0 0 1 1.74336,1.69208 z" />
    <path
       id="VERTEX_FOUR"
       style="stroke-width:0.0745647"
       d="m 127.27647,149.16548 a 1.7433544,1.6920792 0 0 1 -1.74335,1.69208 1.7433544,1.6920792 0 0 1 -1.74336,-1.69208 1.7433544,1.6920792 0 0 1 1.74336,-1.69208 1.7433544,1.6920792 0 0 1 1.74335,1.69208 z" />
    <path
       id="VERTEX_SIX"
       style="stroke-width:0.0745647"
       d="m 109.17146,159.79047 a 1.7433544,1.6920792 0 0 1 -1.74335,1.69208 1.7433544,1.6920792 0 0 1 -1.74336,-1.69208 1.7433544,1.6920792 0 0 1 1.74336,-1.69207 1.7433544,1.6920792 0 0 1 1.74335,1.69207 z" />
    <path
       id="VERTEX_EIGHT"
       style="stroke-width:0.0745647"
       d="m 90.763181,149.35586 a 1.7433544,1.6920792 0 0 1 -1.74336,1.69208 1.7433544,1.6920792 0 0 1 -1.74335,-1.69208 1.7433544,1.6920792 0 0 1 1.74335,-1.69208 1.7433544,1.6920792 0 0 1 1.74336,1.69208 z" />
  </g>
</svg>
